<svg width="294" height="65" viewBox="0 0 294 65" fill="none" xmlns="http://www.w3.org/2000/svg">
<path d="M53.6667 9H18.6667C12.2233 9 7 14.2233 7 20.6667V44C7 50.4433 12.2233 55.6667 18.6667 55.6667H53.6667C60.11 55.6667 65.3333 50.4433 65.3333 44V20.6667C65.3333 14.2233 60.11 9 53.6667 9Z" stroke="#E38A05" stroke-width="3" stroke-linecap="round" stroke-linejoin="round"/>
<path d="M44.9167 32.3333L30.3333 23.5833V41.0833L44.9167 32.3333Z" fill="#E38A05"/>
<path d="M86.6136 38.7464L90.8616 21.5052H93.1615L93.3079 25.138L88.7669 42.8333H86.3353L86.6136 38.7464ZM83.9329 21.5052L87.4193 38.6878V42.8333H84.7679L79.9339 21.5052H83.9329ZM97.7171 38.6146L101.145 21.5052H105.159L100.325 42.8333H97.6732L97.7171 38.6146ZM94.2601 21.5052L98.5081 38.805L98.7572 42.8333H96.3255L91.7991 25.1234L91.9749 21.5052H94.2601ZM115.647 39.4642V32.1546C115.647 31.6175 115.554 31.1536 115.368 30.763C115.183 30.3724 114.9 30.0697 114.519 29.8548C114.138 29.64 113.655 29.5325 113.069 29.5325C112.551 29.5325 112.097 29.6204 111.706 29.7962C111.326 29.972 111.033 30.221 110.827 30.5433C110.622 30.8558 110.52 31.2171 110.52 31.6273H106.638C106.638 30.973 106.794 30.3529 107.107 29.7669C107.419 29.1712 107.864 28.6439 108.44 28.1849C109.026 27.7161 109.724 27.3499 110.535 27.0863C111.355 26.8226 112.273 26.6908 113.288 26.6908C114.49 26.6908 115.559 26.8958 116.496 27.306C117.444 27.7064 118.186 28.3118 118.723 29.1224C119.27 29.9329 119.543 30.9534 119.543 32.1839V39.098C119.543 39.889 119.592 40.5677 119.69 41.1341C119.797 41.6908 119.953 42.1741 120.159 42.5843V42.8333H116.218C116.033 42.4329 115.891 41.9251 115.793 41.3099C115.696 40.6849 115.647 40.0697 115.647 39.4642ZM116.189 33.18L116.218 35.4798H113.772C113.166 35.4798 112.634 35.5433 112.175 35.6702C111.716 35.7874 111.34 35.9632 111.047 36.1976C110.754 36.4222 110.535 36.6956 110.388 37.0179C110.242 37.3304 110.168 37.6868 110.168 38.0872C110.168 38.4779 110.256 38.8294 110.432 39.1419C110.618 39.4544 110.881 39.7034 111.223 39.889C111.575 40.0648 111.985 40.1527 112.453 40.1527C113.137 40.1527 113.733 40.0159 114.241 39.7425C114.748 39.4593 115.144 39.1175 115.427 38.7171C115.71 38.3167 115.862 37.9359 115.881 37.5745L116.994 39.2445C116.858 39.6449 116.653 40.0697 116.379 40.5189C116.106 40.9681 115.754 41.388 115.325 41.7786C114.895 42.1693 114.377 42.4915 113.772 42.7454C113.166 42.9993 112.463 43.1263 111.662 43.1263C110.637 43.1263 109.719 42.9212 108.909 42.5111C108.098 42.1009 107.458 41.5394 106.99 40.8265C106.521 40.1136 106.286 39.3031 106.286 38.3949C106.286 37.555 106.443 36.8128 106.755 36.1683C107.068 35.5238 107.532 34.9818 108.147 34.5423C108.762 34.0931 109.524 33.7562 110.432 33.5316C111.35 33.2972 112.4 33.18 113.581 33.18H116.189ZM130.53 26.9837V29.7669H121.448V26.9837H130.53ZM123.879 23.0872H127.761V38.263C127.761 38.7318 127.825 39.0931 127.951 39.347C128.078 39.6009 128.269 39.7718 128.523 39.8597C128.777 39.9476 129.079 39.9915 129.431 39.9915C129.685 39.9915 129.919 39.9769 130.134 39.9476C130.349 39.9183 130.53 39.889 130.676 39.8597L130.691 42.7601C130.368 42.8675 130.002 42.9554 129.592 43.0238C129.192 43.0921 128.738 43.1263 128.23 43.1263C127.361 43.1263 126.599 42.9798 125.945 42.6868C125.29 42.3841 124.783 41.9007 124.421 41.2366C124.06 40.5628 123.879 39.6741 123.879 38.5706V23.0872ZM139.612 40.0794C140.159 40.0794 140.647 39.972 141.076 39.7572C141.506 39.5423 141.848 39.2396 142.102 38.849C142.366 38.4583 142.507 38.0042 142.527 37.4866H146.174C146.155 38.5609 145.852 39.5228 145.266 40.3724C144.68 41.222 143.899 41.8958 142.922 42.3939C141.955 42.8822 140.871 43.1263 139.67 43.1263C138.45 43.1263 137.385 42.9212 136.477 42.5111C135.569 42.1009 134.812 41.5296 134.206 40.7972C133.611 40.0648 133.161 39.2152 132.859 38.2484C132.566 37.2816 132.419 36.2464 132.419 35.1429V34.6741C132.419 33.5706 132.566 32.5355 132.859 31.5687C133.161 30.6019 133.611 29.7523 134.206 29.0199C134.812 28.2874 135.569 27.7161 136.477 27.306C137.385 26.8958 138.445 26.6908 139.656 26.6908C140.935 26.6908 142.058 26.9398 143.025 27.4378C144.001 27.9359 144.763 28.639 145.31 29.5472C145.867 30.4554 146.155 31.5247 146.174 32.7552H142.527C142.507 32.1888 142.38 31.681 142.146 31.2318C141.911 30.7825 141.579 30.4212 141.15 30.1478C140.72 29.8743 140.198 29.7376 139.582 29.7376C138.928 29.7376 138.381 29.8743 137.942 30.1478C137.512 30.4212 137.175 30.7972 136.931 31.2757C136.697 31.7445 136.531 32.2718 136.433 32.8577C136.345 33.4339 136.301 34.0394 136.301 34.6741V35.1429C136.301 35.7874 136.345 36.4027 136.433 36.9886C136.531 37.5745 136.697 38.1019 136.931 38.5706C137.175 39.0296 137.512 39.3958 137.942 39.6693C138.381 39.9427 138.938 40.0794 139.612 40.0794ZM152.546 20.3333V42.8333H148.664V20.3333H152.546ZM151.931 34.3372H150.788C150.788 33.2337 150.935 32.2181 151.228 31.2904C151.521 30.3626 151.936 29.557 152.473 28.8734C153.01 28.18 153.65 27.6429 154.392 27.262C155.144 26.8812 155.974 26.6908 156.882 26.6908C157.663 26.6908 158.371 26.8031 159.006 27.0277C159.651 27.2425 160.202 27.5892 160.661 28.0677C161.12 28.5462 161.472 29.1712 161.716 29.9427C161.97 30.7044 162.097 31.6322 162.097 32.7259V42.8333H158.201V32.6966C158.201 31.9642 158.093 31.388 157.878 30.9681C157.663 30.5384 157.356 30.2308 156.955 30.0452C156.565 29.8597 156.081 29.7669 155.505 29.7669C154.88 29.7669 154.343 29.889 153.894 30.1331C153.445 30.3675 153.074 30.6947 152.781 31.1146C152.497 31.5345 152.283 32.0179 152.136 32.5648C151.999 33.1116 151.931 33.7025 151.931 34.3372ZM181.711 39.4642V32.1546C181.711 31.6175 181.618 31.1536 181.433 30.763C181.247 30.3724 180.964 30.0697 180.583 29.8548C180.202 29.64 179.719 29.5325 179.133 29.5325C178.616 29.5325 178.161 29.6204 177.771 29.7962C177.39 29.972 177.097 30.221 176.892 30.5433C176.687 30.8558 176.584 31.2171 176.584 31.6273H172.702C172.702 30.973 172.859 30.3529 173.171 29.7669C173.484 29.1712 173.928 28.6439 174.504 28.1849C175.09 27.7161 175.788 27.3499 176.599 27.0863C177.419 26.8226 178.337 26.6908 179.353 26.6908C180.554 26.6908 181.623 26.8958 182.561 27.306C183.508 27.7064 184.25 28.3118 184.787 29.1224C185.334 29.9329 185.608 30.9534 185.608 32.1839V39.098C185.608 39.889 185.657 40.5677 185.754 41.1341C185.862 41.6908 186.018 42.1741 186.223 42.5843V42.8333H182.283C182.097 42.4329 181.955 41.9251 181.858 41.3099C181.76 40.6849 181.711 40.0697 181.711 39.4642ZM182.253 33.18L182.283 35.4798H179.836C179.231 35.4798 178.699 35.5433 178.24 35.6702C177.781 35.7874 177.405 35.9632 177.112 36.1976C176.819 36.4222 176.599 36.6956 176.452 37.0179C176.306 37.3304 176.233 37.6868 176.233 38.0872C176.233 38.4779 176.321 38.8294 176.496 39.1419C176.682 39.4544 176.946 39.7034 177.287 39.889C177.639 40.0648 178.049 40.1527 178.518 40.1527C179.201 40.1527 179.797 40.0159 180.305 39.7425C180.813 39.4593 181.208 39.1175 181.492 38.7171C181.775 38.3167 181.926 37.9359 181.946 37.5745L183.059 39.2445C182.922 39.6449 182.717 40.0697 182.444 40.5189C182.17 40.9681 181.819 41.388 181.389 41.7786C180.959 42.1693 180.442 42.4915 179.836 42.7454C179.231 42.9993 178.528 43.1263 177.727 43.1263C176.701 43.1263 175.784 42.9212 174.973 42.5111C174.162 42.1009 173.523 41.5394 173.054 40.8265C172.585 40.1136 172.351 39.3031 172.351 38.3949C172.351 37.555 172.507 36.8128 172.82 36.1683C173.132 35.5238 173.596 34.9818 174.211 34.5423C174.826 34.0931 175.588 33.7562 176.496 33.5316C177.414 33.2972 178.464 33.18 179.646 33.18H182.253ZM192.888 30.3675V42.8333H189.021V26.9837H192.654L192.888 30.3675ZM192.273 34.3372H191.13C191.14 33.1849 191.296 32.14 191.599 31.2025C191.902 30.265 192.326 29.4593 192.873 28.7855C193.43 28.1116 194.089 27.5941 194.851 27.2327C195.613 26.8714 196.462 26.6908 197.4 26.6908C198.161 26.6908 198.85 26.7982 199.465 27.013C200.08 27.2279 200.608 27.5697 201.047 28.0384C201.496 28.5072 201.838 29.1224 202.073 29.8841C202.317 30.6361 202.439 31.5638 202.439 32.6673V42.8333H198.542V32.638C198.542 31.9154 198.435 31.3441 198.22 30.9241C198.015 30.5042 197.712 30.2064 197.312 30.0306C196.921 29.8548 196.438 29.7669 195.862 29.7669C195.266 29.7669 194.743 29.889 194.294 30.1331C193.855 30.3675 193.484 30.6947 193.181 31.1146C192.888 31.5345 192.663 32.0179 192.507 32.5648C192.351 33.1116 192.273 33.7025 192.273 34.3372ZM215.359 39.4642V20.3333H219.255V42.8333H215.74L215.359 39.4642ZM205.178 35.099V34.7913C205.178 33.5804 205.315 32.4818 205.588 31.4954C205.871 30.4993 206.282 29.6449 206.819 28.932C207.356 28.2191 208.005 27.6673 208.767 27.2767C209.538 26.8861 210.412 26.6908 211.389 26.6908C212.336 26.6908 213.161 26.8812 213.865 27.262C214.577 27.6429 215.183 28.1849 215.681 28.888C216.189 29.5911 216.594 30.4261 216.897 31.3929C217.2 32.3499 217.419 33.4046 217.556 34.557V35.3919C217.419 36.515 217.2 37.5452 216.897 38.4827C216.594 39.4202 216.189 40.2406 215.681 40.9437C215.183 41.637 214.577 42.1741 213.865 42.555C213.152 42.9359 212.317 43.1263 211.36 43.1263C210.393 43.1263 209.524 42.9261 208.752 42.5257C207.991 42.1253 207.341 41.5638 206.804 40.8411C206.277 40.1185 205.871 39.2689 205.588 38.2923C205.315 37.3158 205.178 36.2513 205.178 35.099ZM209.06 34.7913V35.099C209.06 35.7825 209.118 36.4222 209.236 37.0179C209.353 37.6136 209.543 38.1409 209.807 38.5999C210.071 39.0491 210.408 39.4007 210.818 39.6546C211.238 39.9085 211.745 40.0355 212.341 40.0355C213.103 40.0355 213.728 39.8695 214.216 39.5374C214.714 39.1956 215.1 38.7318 215.373 38.1458C215.647 37.5501 215.823 36.8812 215.901 36.139V33.8392C215.862 33.2533 215.759 32.7113 215.593 32.2132C215.437 31.7152 215.212 31.2855 214.919 30.9241C214.636 30.5628 214.285 30.2796 213.865 30.0745C213.445 29.8695 212.947 29.7669 212.37 29.7669C211.775 29.7669 211.267 29.8988 210.847 30.1624C210.427 30.4163 210.085 30.7728 209.822 31.2318C209.558 31.6908 209.363 32.223 209.236 32.8284C209.118 33.4339 209.06 34.0882 209.06 34.7913ZM238.723 35.055H233.23V31.8909H238.723C239.621 31.8909 240.349 31.7445 240.906 31.4515C241.472 31.1488 241.887 30.7386 242.151 30.221C242.414 29.6937 242.546 29.0931 242.546 28.4193C242.546 27.765 242.414 27.1546 242.151 26.5882C241.887 26.0218 241.472 25.5628 240.906 25.2113C240.349 24.8597 239.621 24.6839 238.723 24.6839H234.548V42.8333H230.52V21.5052H238.723C240.383 21.5052 241.799 21.8031 242.971 22.3988C244.153 22.9847 245.051 23.8001 245.666 24.845C246.291 25.8802 246.604 27.0618 246.604 28.39C246.604 29.7669 246.291 30.9534 245.666 31.9495C245.051 32.9456 244.153 33.7122 242.971 34.2493C241.799 34.7865 240.383 35.055 238.723 35.055ZM253.576 20.3333V42.8333H249.695V20.3333H253.576ZM265.998 39.4642V32.1546C265.998 31.6175 265.906 31.1536 265.72 30.763C265.535 30.3724 265.251 30.0697 264.87 29.8548C264.49 29.64 264.006 29.5325 263.42 29.5325C262.903 29.5325 262.449 29.6204 262.058 29.7962C261.677 29.972 261.384 30.221 261.179 30.5433C260.974 30.8558 260.871 31.2171 260.871 31.6273H256.99C256.99 30.973 257.146 30.3529 257.458 29.7669C257.771 29.1712 258.215 28.6439 258.791 28.1849C259.377 27.7161 260.076 27.3499 260.886 27.0863C261.706 26.8226 262.624 26.6908 263.64 26.6908C264.841 26.6908 265.91 26.8958 266.848 27.306C267.795 27.7064 268.537 28.3118 269.075 29.1224C269.621 29.9329 269.895 30.9534 269.895 32.1839V39.098C269.895 39.889 269.944 40.5677 270.041 41.1341C270.149 41.6908 270.305 42.1741 270.51 42.5843V42.8333H266.57C266.384 42.4329 266.243 41.9251 266.145 41.3099C266.047 40.6849 265.998 40.0697 265.998 39.4642ZM266.54 33.18L266.57 35.4798H264.123C263.518 35.4798 262.986 35.5433 262.527 35.6702C262.068 35.7874 261.692 35.9632 261.399 36.1976C261.106 36.4222 260.886 36.6956 260.74 37.0179C260.593 37.3304 260.52 37.6868 260.52 38.0872C260.52 38.4779 260.608 38.8294 260.784 39.1419C260.969 39.4544 261.233 39.7034 261.575 39.889C261.926 40.0648 262.336 40.1527 262.805 40.1527C263.489 40.1527 264.084 40.0159 264.592 39.7425C265.1 39.4593 265.495 39.1175 265.779 38.7171C266.062 38.3167 266.213 37.9359 266.233 37.5745L267.346 39.2445C267.209 39.6449 267.004 40.0697 266.731 40.5189C266.457 40.9681 266.106 41.388 265.676 41.7786C265.246 42.1693 264.729 42.4915 264.123 42.7454C263.518 42.9993 262.815 43.1263 262.014 43.1263C260.989 43.1263 260.071 42.9212 259.26 42.5111C258.45 42.1009 257.81 41.5394 257.341 40.8265C256.872 40.1136 256.638 39.3031 256.638 38.3949C256.638 37.555 256.794 36.8128 257.107 36.1683C257.419 35.5238 257.883 34.9818 258.498 34.5423C259.114 34.0931 259.875 33.7562 260.784 33.5316C261.701 33.2972 262.751 33.18 263.933 33.18H266.54ZM277.79 41.0755L282.038 26.9837H286.184L279.826 45.2357C279.68 45.6263 279.49 46.0511 279.255 46.5101C279.031 46.9691 278.728 47.4036 278.347 47.8138C277.966 48.2337 277.488 48.5755 276.911 48.8392C276.345 49.1029 275.657 49.2347 274.846 49.2347C274.494 49.2347 274.182 49.2103 273.909 49.1615C273.635 49.1126 273.347 49.0491 273.044 48.971V46.0706C273.142 46.0804 273.254 46.0853 273.381 46.0853C273.518 46.095 273.635 46.0999 273.733 46.0999C274.299 46.0999 274.768 46.0316 275.139 45.8949C275.51 45.7679 275.808 45.5579 276.033 45.265C276.267 44.9818 276.462 44.6107 276.618 44.1517L277.79 41.0755ZM275.696 26.9837L279.285 38.6585L279.914 42.7454L277.248 43.2288L271.521 26.9837H275.696Z" fill="#E38A05"/>
</svg>
