<svg width="34" height="34" viewBox="0 0 34 34" fill="none" xmlns="http://www.w3.org/2000/svg">
<path d="M7.10834 3.01167L9.02 5.74333C6.69697 7.36961 4.95293 9.69417 4.04124 12.3793C3.12954 15.0645 3.09767 17.9704 3.95026 20.6749C4.80285 23.3794 6.49549 25.7416 8.78229 27.4185C11.0691 29.0953 13.831 29.9994 16.6667 29.9994C19.5024 29.9994 22.2642 29.0953 24.5511 27.4185C26.8379 25.7416 28.5305 23.3794 29.3831 20.6749C30.2357 17.9704 30.2038 15.0645 29.2921 12.3793C28.3804 9.69417 26.6364 7.36961 24.3133 5.74333L26.225 3.01167C28.4216 4.54738 30.2149 6.59076 31.4525 8.96811C32.69 11.3455 33.3353 13.9865 33.3333 16.6667C33.3333 25.8717 25.8717 33.3333 16.6667 33.3333C7.46167 33.3333 4.31705e-06 25.8717 4.31705e-06 16.6667C-0.00192572 13.9865 0.64332 11.3455 1.88089 8.96811C3.11846 6.59076 4.91176 4.54738 7.10834 3.01167V3.01167ZM15 16.6667V0H18.3333V16.6667H15Z" fill="#FFEEFF"/>
</svg>
