<svg width="40" height="40" viewBox="0 0 40 40" fill="none" xmlns="http://www.w3.org/2000/svg">
<path d="M3.84995 18.7367C3.78869 18.491 3.78419 18.2347 3.83679 17.987C3.88939 17.7394 3.99772 17.507 4.15355 17.3075C4.30937 17.1079 4.50861 16.9465 4.73612 16.8355C4.96364 16.7245 5.21346 16.6667 5.46662 16.6667H34.5333C34.7865 16.6667 35.0363 16.7245 35.2638 16.8355C35.4913 16.9465 35.6905 17.1079 35.8464 17.3075C36.0022 17.507 36.1105 17.7394 36.1631 17.987C36.2157 18.2347 36.2112 18.491 36.15 18.7367L33.1316 30.8083C32.9514 31.5295 32.5353 32.1697 31.9494 32.6272C31.3636 33.0847 30.6416 33.3332 29.8983 33.3333H10.1016C9.3583 33.3332 8.63635 33.0847 8.0505 32.6272C7.46466 32.1697 7.04854 31.5295 6.86829 30.8083L3.84995 18.7383V18.7367Z" stroke="#FFEEFF" stroke-width="2" stroke-linejoin="round"/>
<path d="M15 23.3333V26.6667M25 23.3333V26.6667M10 16.6667L16.6667 6.66666M30 16.6667L23.3333 6.66666" stroke="#FFEEFF" stroke-width="2" stroke-linecap="round"/>
</svg>
