<svg width="40" height="40" viewBox="0 0 40 40" fill="none" xmlns="http://www.w3.org/2000/svg">
<path d="M13.75 13.75C14.0815 13.75 14.3995 13.8817 14.6339 14.1161C14.8683 14.3505 15 14.6685 15 15V30C15 30.3315 14.8683 30.6495 14.6339 30.8839C14.3995 31.1183 14.0815 31.25 13.75 31.25C13.4185 31.25 13.1005 31.1183 12.8661 30.8839C12.6317 30.6495 12.5 30.3315 12.5 30V15C12.5 14.6685 12.6317 14.3505 12.8661 14.1161C13.1005 13.8817 13.4185 13.75 13.75 13.75ZM20 13.75C20.3315 13.75 20.6495 13.8817 20.8839 14.1161C21.1183 14.3505 21.25 14.6685 21.25 15V30C21.25 30.3315 21.1183 30.6495 20.8839 30.8839C20.6495 31.1183 20.3315 31.25 20 31.25C19.6685 31.25 19.3505 31.1183 19.1161 30.8839C18.8817 30.6495 18.75 30.3315 18.75 30V15C18.75 14.6685 18.8817 14.3505 19.1161 14.1161C19.3505 13.8817 19.6685 13.75 20 13.75ZM27.5 15C27.5 14.6685 27.3683 14.3505 27.1339 14.1161C26.8995 13.8817 26.5815 13.75 26.25 13.75C25.9185 13.75 25.6005 13.8817 25.3661 14.1161C25.1317 14.3505 25 14.6685 25 15V30C25 30.3315 25.1317 30.6495 25.3661 30.8839C25.6005 31.1183 25.9185 31.25 26.25 31.25C26.5815 31.25 26.8995 31.1183 27.1339 30.8839C27.3683 30.6495 27.5 30.3315 27.5 30V15Z" fill="#FEFEFE"/>
<path fill-rule="evenodd" clip-rule="evenodd" d="M36.25 7.5C36.25 8.16304 35.9866 8.79893 35.5178 9.26777C35.0489 9.73661 34.413 10 33.75 10H32.5V32.5C32.5 33.8261 31.9732 35.0979 31.0355 36.0355C30.0979 36.9732 28.8261 37.5 27.5 37.5H12.5C11.1739 37.5 9.90215 36.9732 8.96447 36.0355C8.02678 35.0979 7.5 33.8261 7.5 32.5V10H6.25C5.58696 10 4.95107 9.73661 4.48223 9.26777C4.01339 8.79893 3.75 8.16304 3.75 7.5V5C3.75 4.33696 4.01339 3.70107 4.48223 3.23223C4.95107 2.76339 5.58696 2.5 6.25 2.5H15C15 1.83696 15.2634 1.20107 15.7322 0.732233C16.2011 0.263392 16.837 0 17.5 0L22.5 0C23.163 0 23.7989 0.263392 24.2678 0.732233C24.7366 1.20107 25 1.83696 25 2.5H33.75C34.413 2.5 35.0489 2.76339 35.5178 3.23223C35.9866 3.70107 36.25 4.33696 36.25 5V7.5ZM10.295 10L10 10.1475V32.5C10 33.163 10.2634 33.7989 10.7322 34.2678C11.2011 34.7366 11.837 35 12.5 35H27.5C28.163 35 28.7989 34.7366 29.2678 34.2678C29.7366 33.7989 30 33.163 30 32.5V10.1475L29.705 10H10.295ZM6.25 7.5V5H33.75V7.5H6.25Z" fill="#FEFEFE"/>
</svg>
