<svg width="32" height="32" viewBox="0 0 32 32" fill="none" xmlns="http://www.w3.org/2000/svg">
<path d="M16.4027 17.5733V14.3906C16.4027 13.7426 16.7053 13.2786 17.352 13.2786H21.3387C21.3613 13.2786 21.3853 13.2546 21.3853 13.2306V12.5973C21.3853 12.592 21.3853 12.5866 21.3813 12.5813H16.5013C15.4453 12.7146 14.928 13.452 14.928 14.3906V17.572C14.928 18.2146 14.6173 18.68 13.9813 18.68H9.776C9.752 18.68 9.728 18.696 9.728 18.728V19.3613C9.728 19.388 9.74133 19.408 9.75867 19.4146H14.5373C15.7813 19.3813 16.3947 18.588 16.3947 17.568L16.4027 17.5733ZM0.032 19.4186H1.432C1.44226 19.4141 1.45092 19.4066 1.45686 19.3971C1.4628 19.3876 1.46576 19.3765 1.46533 19.3653V17.3386C1.46533 16.6893 1.832 16.2413 2.36667 16.2413H8.13067C9.42933 16.2413 10.0573 15.4413 10.0573 14.396C10.0573 13.456 9.54267 12.72 8.484 12.5866H0.008C0.008 12.5906 0 12.5933 0 12.6V13.2333C0 13.2653 0.0173333 13.2813 0.0493333 13.2813H7.64533C8.29067 13.2813 8.59467 13.748 8.59467 14.392C8.59467 15.0373 8.292 15.5066 7.64533 15.5066H1.63467C0.701333 15.5066 0 16.296 0 17.3373V19.3626C0 19.3893 0.0133333 19.4106 0.0373333 19.416L0.032 19.4186ZM21.3627 18.6853H29.0133C29.036 18.6853 29.0533 18.7013 29.0533 18.7173V19.3613C29.0533 19.3933 29.076 19.4093 29.1 19.4093H30.48C30.504 19.4093 30.528 19.396 30.528 19.3613V18.728C30.528 18.704 30.5547 18.68 30.5813 18.68H31.952C31.984 18.68 32 18.656 32 18.632V17.9866C32 17.9626 31.9867 17.9386 31.9533 17.9386H30.58C30.5533 17.9386 30.5307 17.916 30.5307 17.892V13.28C30.5307 12.9026 30.392 12.6626 30.1573 12.5826H29.7573C29.6149 12.6216 29.4788 12.6809 29.3533 12.7586L21.1133 17.8453C20.7933 18.0453 20.6827 18.2693 20.7627 18.4386C20.8267 18.5773 21.0093 18.6813 21.368 18.6813L21.3627 18.6853ZM22.556 17.836L28.9427 13.888C28.9827 13.856 29.0627 13.864 29.0627 13.952V17.9C29.0627 17.924 29.0413 17.948 29.0173 17.948H22.5947C22.5413 17.948 22.5147 17.932 22.508 17.916C22.5 17.884 22.5147 17.86 22.556 17.836Z" fill="#FEFEFE"/>
</svg>
