<svg width="27" height="27" viewBox="0 0 27 27" fill="none" xmlns="http://www.w3.org/2000/svg">
<path d="M15.3235 13.1306C15.3235 5.94608 15.3399 0.0541298 15.3612 0.0377269C15.3776 0.016403 16.4654 0 17.7696 0C19.6613 0 20.247 0.016403 20.6292 0.0820149C23.4675 0.570824 25.6249 2.70649 26.163 5.53765C26.2385 5.9346 26.25 6.86465 26.25 13.0994C26.25 19.759 26.2582 20.5415 26.0482 21.2615C26.0121 21.3862 25.9694 21.5076 25.9169 21.6585C25.5027 22.8675 24.7554 23.935 23.761 24.738C22.7666 25.5409 21.5655 26.0468 20.2962 26.1972C19.7761 26.2513 15.5565 26.2727 15.4105 26.2185C15.3284 26.1857 15.3235 24.985 15.3235 13.1306V13.1306ZM22.9933 13.5718C22.8507 13.1615 22.6097 12.7924 22.2914 12.4967C21.9731 12.201 21.5871 11.9878 21.1674 11.8758C20.5128 11.7061 19.818 11.7941 19.2264 12.1216C18.6348 12.4491 18.1915 12.9911 17.9878 13.6358C17.8525 14.1371 17.8446 14.6643 17.9649 15.1695C18.1652 15.8242 18.6088 16.3773 19.2044 16.715C19.8001 17.0528 20.5026 17.1495 21.1674 16.9853C22.0041 16.7622 22.657 16.1586 22.9884 15.2991C23.1689 14.8316 23.1738 14.082 22.9933 13.5718ZM6.08687 5.44087C5.74562 5.50648 5.22391 5.76729 4.94665 6.01169C4.37571 6.50542 4.09353 7.20747 4.13618 8.03254C4.15751 8.4623 4.1854 8.57712 4.35931 8.92486C4.6136 9.4514 4.99915 9.83687 5.52742 10.0977C5.89164 10.2781 5.98351 10.2994 6.45765 10.3158C6.88585 10.3322 7.03842 10.3158 7.32717 10.2174C8.50677 9.82047 9.21879 8.67554 9.017 7.50108C8.78403 6.10355 7.45842 5.16858 6.08687 5.44087V5.44087Z" fill="#FEFEFE"/>
<path d="M5.61929 0.086945C4.34379 0.311855 3.15931 0.89704 2.20577 1.77338C1.25222 2.64972 0.56945 3.7806 0.238095 5.03244C0.000206259 5.95101 -0.0161998 6.48903 0.0084093 13.6145C0.0248154 20.1593 0.0313778 20.3102 0.139658 20.8154C0.743402 23.5383 2.67932 25.4804 5.42898 26.1218C5.78992 26.2038 6.24436 26.2202 9.18598 26.2366C12.2309 26.2563 12.5459 26.2513 12.6263 26.171C12.7084 26.089 12.7133 25.0392 12.7133 13.147C12.7133 4.33204 12.6969 0.178802 12.6591 0.103348C12.605 0.00493011 12.5115 9.20773e-06 9.32871 0.0049301C6.73983 0.0114913 5.96218 0.0278943 5.62093 0.086945H5.61929ZM10.5411 24.1419L8.3263 24.1157C6.28866 24.0943 6.07046 24.0829 5.66359 23.9795C4.81671 23.7705 4.04651 23.3256 3.44246 22.6964C2.83842 22.0672 2.42531 21.2796 2.25112 20.425C2.12972 19.8755 2.12972 6.35288 2.24456 5.81487C2.40236 5.06666 2.74164 4.36869 3.23255 3.78235C3.72346 3.196 4.35095 2.73924 5.05984 2.45226C5.77843 2.16356 6.10984 2.13076 8.43622 2.1242L10.5395 2.11927V24.1419H10.5411Z" fill="#FEFEFE"/>
</svg>
