<svg width="25" height="25" viewBox="0 0 25 25" fill="none" xmlns="http://www.w3.org/2000/svg">
<g clip-path="url(#clip0_87_367)">
<path d="M11.2532 24.9487C9.27262 24.7446 7.36964 24.0695 5.70318 22.9799C4.30005 22.0659 3.98287 21.6893 3.98287 20.9393C3.98287 19.4315 5.64224 16.7893 8.4813 13.7784C10.0922 12.0674 12.3391 10.0627 12.5813 10.1174C13.0532 10.2237 16.8282 13.9034 18.2407 15.6346C20.4751 18.3737 21.5032 20.6174 20.9813 21.6174C20.5844 22.3768 18.1219 23.8627 16.3141 24.433C14.8235 24.9034 12.8657 25.1034 11.2532 24.9487ZM2.08755 19.3705C0.920367 17.583 0.331304 15.8237 0.0469292 13.2768C-0.0468208 12.4346 -0.0124458 11.9549 0.260992 10.2299C0.601617 8.07836 1.82662 5.5893 3.30005 4.05805C3.92662 3.40649 3.98287 3.39086 4.74693 3.64711C5.67662 3.95961 6.6688 4.64399 8.20474 6.03461L9.10162 6.84555L8.61255 7.44711C6.33755 10.2393 3.93755 14.1971 3.0313 16.6455C2.53912 17.9768 2.34068 19.3127 2.55318 19.869C2.69537 20.244 2.56412 20.1034 2.08443 19.3705H2.08755ZM22.5579 19.6752C22.6735 19.1127 22.5282 18.0815 22.186 17.0393C21.4469 14.7846 18.9751 10.5893 16.7047 7.73774L15.9907 6.8393L16.7626 6.12992C17.7719 5.20336 18.4735 4.64867 19.2313 4.1768C19.8266 3.80649 20.6797 3.4768 21.0454 3.4768C21.2719 3.4768 22.0672 4.3018 22.7094 5.2018C23.7312 6.65794 24.4452 8.30717 24.8079 10.0487C25.0469 11.1862 25.0672 13.6205 24.8454 14.7549C24.6371 15.7709 24.3229 16.7623 23.9079 17.7127C23.6282 18.3268 22.9329 19.519 22.6266 19.9065C22.4704 20.1065 22.4704 20.1049 22.5594 19.6752H22.5579ZM11.461 3.05024C10.4141 2.51899 8.79849 1.94867 7.90474 1.79555C7.5123 1.7371 7.11534 1.71461 6.7188 1.72836C5.98287 1.76586 6.01568 1.72836 7.19693 1.16899C8.12292 0.724277 9.10155 0.398765 10.1094 0.200236C11.3594 -0.063827 13.7126 -0.0653895 14.9438 0.192423C16.2719 0.473673 17.8391 1.05492 18.7219 1.59867L18.9844 1.75961L18.3829 1.72836C17.186 1.66899 15.4454 2.15024 13.5735 3.06117C13.0094 3.33617 12.5172 3.55492 12.4813 3.54867C12.1358 3.39269 11.795 3.22647 11.4594 3.05024H11.461Z" fill="#FEFEFE"/>
</g>
<defs>
<clipPath id="clip0_87_367">
<rect width="25" height="25" fill="white"/>
</clipPath>
</defs>
</svg>
